# xmcd
#
# Track frame offsets: 
#        150
#        13663
#        25352
#        36430
#        50624
#        68991
#        83239
#        94213
#        102599
#        118805
#        129805
#        142682
#
# Disc length: 2091 seconds
#
# Revision: 0
# Processed by: cddbd v1.5.2PL0 Copyright (c) Steve Scherf et al.
# Submitted via: ExactAudioCopy v0.99pb5
#
DISCID=a308290c
DTITLE=Beau Brummels  - The Best Of (1967) [vinyl]  
DYEAR=1900
DGENRE=
TTITLE0=The Beau Brummels - Laugh Laugh
TTITLE1=The Beau Brummels - Still In Love With You Baby
TTITLE2=The Beau Brummels - Just A Little
TTITLE3=The Beau Brummels - They'll Make You Cry
TTITLE4=The Beau Brummels - I Want You
TTITLE5=The Beau Brummels - You Tell Me Why
TTITLE6=The Beau Brummels - Don't Talk To Strangers
TTITLE7=The Beau Brummels - In Good Time
TTITLE8=The Beau Brummels - Sad Little Girl
TTITLE9=The Beau Brummels - Ain't That Loving You Baby
TTITLE10=The Beau Brummels - Woman
TTITLE11=The Beau Brummels - Good Time Music
EXTD=
EXTT0=
EXTT1=
EXTT2=
EXTT3=
EXTT4=
EXTT5=
EXTT6=
EXTT7=
EXTT8=
EXTT9=
EXTT10=
EXTT11=
PLAYORDER=
